<svg xmlns="http://www.w3.org/2000/svg" xmlns:xlink="http://www.w3.org/1999/xlink" width="233.595" height="311.272" viewBox="0 0 233.595 311.272">
  <defs>
    <filter id="Rectángulo_1429" x="10.823" y="0" width="116.594" height="123.141" filterUnits="userSpaceOnUse">
      <feOffset dy="3" input="SourceAlpha"/>
      <feGaussianBlur stdDeviation="3" result="blur"/>
      <feFlood flood-opacity="0.161"/>
      <feComposite operator="in" in2="blur"/>
      <feComposite in="SourceGraphic"/>
    </filter>
    <filter id="Rectángulo_1430" x="119.385" y="92.641" width="114.21" height="123.432" filterUnits="userSpaceOnUse">
      <feOffset dy="3" input="SourceAlpha"/>
      <feGaussianBlur stdDeviation="3" result="blur-2"/>
      <feFlood flood-opacity="0.161"/>
      <feComposite operator="in" in2="blur-2"/>
      <feComposite in="SourceGraphic"/>
    </filter>
    <filter id="Rectángulo_1431" x="0" y="158.875" width="148.767" height="152.397" filterUnits="userSpaceOnUse">
      <feOffset dx="7" dy="-2" input="SourceAlpha"/>
      <feGaussianBlur stdDeviation="8" result="blur-3"/>
      <feFlood flood-color="#0d2c6f" flood-opacity="0.392"/>
      <feComposite operator="in" in2="blur-3"/>
      <feComposite in="SourceGraphic"/>
    </filter>
  </defs>
  <g id="Grupo_929" data-name="Grupo 929" transform="translate(-787.325 -172.426)">
    <g id="Grupo_927" data-name="Grupo 927" transform="translate(798.148 172.426)">
      <g transform="matrix(1, 0, 0, 1, -10.82, 0)" filter="url(#Rectángulo_1429)">
        <path id="Rectángulo_1429-2" data-name="Rectángulo 1429" d="M20.8,6.24l76.752,1.7a9.47,9.47,0,0,1,3.907.939,10.165,10.165,0,0,1,3.159,2.389,11.022,11.022,0,0,1,2.1,3.481,11.564,11.564,0,0,1,.73,4.221l-1.058,79.289a11.615,11.615,0,0,1-.839,4.192,11.325,11.325,0,0,1-2.184,3.455,10.507,10.507,0,0,1-3.209,2.37,9.629,9.629,0,0,1-3.916.931L19.78,110.9a10.209,10.209,0,0,1-4.176-.784A10.34,10.34,0,0,1,12.2,107.8a10.781,10.781,0,0,1-2.284-3.506,11.294,11.294,0,0,1-.81-4.339l.77-82.684a11.531,11.531,0,0,1,.895-4.37,11.151,11.151,0,0,1,2.359-3.533,10.656,10.656,0,0,1,3.464-2.338A10.321,10.321,0,0,1,20.8,6.24Z" transform="translate(10.82)" fill="#2250b3"/>
      </g>
      <g id="Icon_feather-phone-forwarded" data-name="Icon feather-phone-forwarded" transform="translate(42.867 39.727)">
        <path id="Trazado_1632" data-name="Trazado 1632" d="M2.157,2.131,7.7,8.137l-5.687,5.95" transform="translate(23.659)" fill="none" stroke="#feb62d" stroke-linecap="round" stroke-linejoin="round" stroke-width="3"/>
        <path id="Trazado_1633" data-name="Trazado 1633" d="M1.432,1.506l11.26.053" transform="translate(18.669 6.578)" fill="none" stroke="#feb62d" stroke-linecap="round" stroke-linejoin="round" stroke-width="3"/>
        <path id="Trazado_1634" data-name="Trazado 1634" d="M29.749,23.953,29.7,28.421a3.168,3.168,0,0,1-.249,1.206,3.1,3.1,0,0,1-.292.537,3.006,3.006,0,0,1-.393.468,2.9,2.9,0,0,1-.475.373,2.79,2.79,0,0,1-.53.26,2.7,2.7,0,0,1-.567.139,2.65,2.65,0,0,1-.587.013,26.153,26.153,0,0,1-3.2-.553,26.356,26.356,0,0,1-3.112-.945A26.685,26.685,0,0,1,17.3,28.591a27.125,27.125,0,0,1-2.833-1.7,27.2,27.2,0,0,1-2.454-1.859A27.74,27.74,0,0,1,9.772,22.9a28.312,28.312,0,0,1-2.006-2.385A28.888,28.888,0,0,1,6.013,17.9,29.862,29.862,0,0,1,4.4,14.854a30.406,30.406,0,0,1-1.254-3.219,30.857,30.857,0,0,1-.888-3.358,31.189,31.189,0,0,1-.509-3.462,3.17,3.17,0,0,1,.152-1.235,3.114,3.114,0,0,1,.252-.565,3.036,3.036,0,0,1,.361-.5A2.943,2.943,0,0,1,2.969,2.1a2.854,2.854,0,0,1,.517-.305A2.781,2.781,0,0,1,4.051,1.6a2.734,2.734,0,0,1,.595-.062l4.293.028a2.711,2.711,0,0,1,1.021.195,2.811,2.811,0,0,1,.861.545,2.965,2.965,0,0,1,.626.827,3.1,3.1,0,0,1,.317,1.039q.062.542.152,1.078t.209,1.066q.119.529.266,1.051T12.712,8.4a3.132,3.132,0,0,1,.165.842,3.175,3.175,0,0,1-.065.843,3.139,3.139,0,0,1-.284.792,3.035,3.035,0,0,1-.493.692L10.2,13.477a23.867,23.867,0,0,0,1.66,2.7,23.293,23.293,0,0,0,1.977,2.419,22.717,22.717,0,0,0,2.264,2.11,22.18,22.18,0,0,0,2.521,1.771l1.818-1.9a2.893,2.893,0,0,1,.657-.51,2.761,2.761,0,0,1,.749-.29,2.661,2.661,0,0,1,1.579.123q.477.189.964.349t.98.29q.493.13.993.23t1,.17a2.658,2.658,0,0,1,.974.348,2.8,2.8,0,0,1,.764.674,2.98,2.98,0,0,1,.489.918,3.123,3.123,0,0,1,.151,1.08Z" transform="translate(0 1.945)" fill="none" stroke="#feb62d" stroke-linecap="round" stroke-linejoin="round" stroke-width="3"/>
      </g>
    </g>
    <g id="Grupo_926" data-name="Grupo 926" transform="translate(906.71 265.068)">
      <g transform="matrix(1, 0, 0, 1, -119.39, -92.64)" filter="url(#Rectángulo_1430)">
        <path id="Rectángulo_1430-2" data-name="Rectángulo 1430" d="M18.859,8.134,94.5,6.265a10.057,10.057,0,0,1,4.155.779,10.368,10.368,0,0,1,3.4,2.327,10.973,10.973,0,0,1,2.3,3.524,11.542,11.542,0,0,1,.845,4.365v82.913a11.542,11.542,0,0,1-.845,4.365,10.973,10.973,0,0,1-2.3,3.524,10.368,10.368,0,0,1-3.4,2.327,10.057,10.057,0,0,1-4.155.779L18.859,109.3a9.3,9.3,0,0,1-3.849-.943,10.212,10.212,0,0,1-3.132-2.384A11.215,11.215,0,0,1,9.771,102.5,11.739,11.739,0,0,1,9,98.3V19.129a11.739,11.739,0,0,1,.771-4.2,11.215,11.215,0,0,1,2.106-3.468A10.212,10.212,0,0,1,15.01,9.076,9.3,9.3,0,0,1,18.859,8.134Z" transform="translate(119.39 92.64)" fill="#155aed"/>
      </g>
      <g id="Icon_feather-video" data-name="Icon feather-video" transform="translate(39.325 46.676)">
        <path id="Trazado_1637" data-name="Trazado 1637" d="M11.309,1.517l-9.9,7.556,9.9,7.556Z" transform="translate(20.88 2.967)" fill="none" stroke="#feb62d" stroke-linecap="round" stroke-linejoin="round" stroke-width="3"/>
        <path id="Trazado_1638" data-name="Trazado 1638" d="M4.142,1.6l15.332-.077a2.637,2.637,0,0,1,1.094.231,2.8,2.8,0,0,1,.894.64,3.014,3.014,0,0,1,.6.953,3.169,3.169,0,0,1,.221,1.17v15.04a3.169,3.169,0,0,1-.221,1.17,3.014,3.014,0,0,1-.6.953,2.8,2.8,0,0,1-.894.64,2.637,2.637,0,0,1-1.094.231L4.142,22.477a2.594,2.594,0,0,1-1.077-.24,2.785,2.785,0,0,1-.878-.643,3.024,3.024,0,0,1-.592-.949,3.179,3.179,0,0,1-.217-1.16V4.6A3.179,3.179,0,0,1,1.6,3.435a3.024,3.024,0,0,1,.592-.949,2.785,2.785,0,0,1,.878-.643A2.594,2.594,0,0,1,4.142,1.6Z" fill="none" stroke="#feb62d" stroke-linecap="round" stroke-linejoin="round" stroke-width="3"/>
      </g>
    </g>
    <g id="Grupo_928" data-name="Grupo 928" transform="translate(787.325 331.301)">
      <g transform="matrix(1, 0, 0, 1, 0, -158.88)" filter="url(#Rectángulo_1431)">
        <path id="Rectángulo_1431-2" data-name="Rectángulo 1431" d="M28.022,26.151l79.239,1.084a10.283,10.283,0,0,1,4.1.911,10.7,10.7,0,0,1,3.339,2.373A11.092,11.092,0,0,1,116.944,34a11.229,11.229,0,0,1,.824,4.235v79.93a11.229,11.229,0,0,1-.824,4.235,11.091,11.091,0,0,1-2.248,3.48,10.7,10.7,0,0,1-3.339,2.373,10.283,10.283,0,0,1-4.1.911l-79.239,1.084a10.775,10.775,0,0,1-7.787-3.156,10.979,10.979,0,0,1-2.366-3.513A11.124,11.124,0,0,1,17,119.248v-82.1a11.124,11.124,0,0,1,.868-4.329,10.979,10.979,0,0,1,2.366-3.513,10.775,10.775,0,0,1,7.787-3.156Z" transform="translate(0 158.88)" fill="#3b7aff"/>
      </g>
      <g id="Icon_feather-mail" data-name="Icon feather-mail" transform="translate(51.761 65.144)">
        <path id="Trazado_1748" data-name="Trazado 1748" d="M4.433,1.52l23.47.072a2.83,2.83,0,0,1,1.132.239,2.943,2.943,0,0,1,.926.645,3.027,3.027,0,0,1,.855,2.113V22.516a3.027,3.027,0,0,1-.855,2.113,2.944,2.944,0,0,1-.926.645,2.831,2.831,0,0,1-1.132.24l-23.47.078a2.873,2.873,0,0,1-1.147-.234,2.96,2.96,0,0,1-.939-.644,3.021,3.021,0,0,1-.868-2.124V4.522A3.022,3.022,0,0,1,2.347,2.4a2.961,2.961,0,0,1,.939-.644A2.874,2.874,0,0,1,4.433,1.52Z" transform="translate(0.581)" fill="none" stroke="#feb62d" stroke-linecap="round" stroke-linejoin="round" stroke-width="3"/>
        <path id="Trazado_1749" data-name="Trazado 1749" d="M31.4,2.169,16.786,12.635,2.06,2.1" transform="translate(0 2.419)" fill="none" stroke="#feb62d" stroke-linecap="round" stroke-linejoin="round" stroke-width="3"/>
      </g>
    </g>
  </g>
</svg>
