<svg xmlns="http://www.w3.org/2000/svg" width="303.014" height="129" viewBox="0 0 303.014 129"><defs><style>.a{fill:#2250b3;}.b{fill:#fec12d;font-size:62px;font-family:Rajdhani-Bold, Rajdhani;font-weight:700;}.c,.d{fill:#f7f6f4;font-family:Rajdhani-Medium, Rajdhani;font-weight:500;}.d{font-size:63px;}.e{fill:#fff;}</style></defs><g transform="translate(-176 -3479)"><path class="a" d="M198.266,109.858H54.929A54.929,54.929,0,0,1,54.929,0H248.085a54.929,54.929,0,0,1,0,109.858h-17.72L230.58,129Z" transform="translate(176 3479)"/><g transform="translate(0 -71)"><text class="b" transform="translate(319 3622)"><tspan x="0" y="0">2</tspan><tspan class="c" y="0">Call</tspan></text><g transform="translate(197.946 3564.2)"><text class="d" transform="translate(0.054 58.8)"><tspan x="0" y="0">Clicl </tspan></text><path class="e" d="M34.6,25.169,26.81,21.83a1.67,1.67,0,0,0-1.948.48l-3.451,4.216A25.786,25.786,0,0,1,9.085,14.2L13.3,10.748a1.665,1.665,0,0,0,.48-1.948L10.442,1.009A1.681,1.681,0,0,0,8.529.042L1.294,1.712A1.67,1.67,0,0,0,0,3.339,32.275,32.275,0,0,0,32.279,35.618a1.67,1.67,0,0,0,1.628-1.294l1.67-7.235A1.69,1.69,0,0,0,34.6,25.169Z" transform="translate(110.113 12.34) rotate(42)"/></g></g></g></svg>