<svg xmlns="http://www.w3.org/2000/svg" width="478" height="160" viewBox="0 0 478 160"><defs><style>.a,.c{fill:#2250b3;}.a,.d{font-size:123px;}.a{font-family:Rajdhani-Bold, Rajdhani;font-weight:700;}.b,.d{fill:#f7f6f4;font-family:Rajdhani-Medium, Rajdhani;}.b,.c,.d{font-weight:500;}.c{font-size:24px;font-family:Avenir-Medium, Avenir;}.e{fill:#fff;}</style></defs><g transform="translate(-196 -280)"><text class="a" transform="translate(430 394)"><tspan x="0" y="0">2</tspan><tspan class="b" y="0">Call</tspan></text><text class="c" transform="translate(229 431)"><tspan x="0" y="0">La revolución de la atención al cliente</tspan></text><text class="d" transform="translate(196 394)"><tspan x="0" y="0">Clicl </tspan></text><path class="e" d="M66.814,48.6,51.769,42.152a3.224,3.224,0,0,0-3.761.927l-6.663,8.14a49.79,49.79,0,0,1-23.8-23.8l8.14-6.663a3.216,3.216,0,0,0,.927-3.761L20.163,1.949A3.245,3.245,0,0,0,16.469.082L2.5,3.305A3.224,3.224,0,0,0,0,6.447,62.322,62.322,0,0,0,62.329,68.776a3.224,3.224,0,0,0,3.143-2.5L68.7,52.307A3.263,3.263,0,0,0,66.814,48.6Z" transform="translate(409.04 302.509) rotate(42)"/></g></svg>