<svg xmlns="http://www.w3.org/2000/svg" xmlns:xlink="http://www.w3.org/1999/xlink" width="1366" height="768" viewBox="0 0 1366 768"><defs><style>.a{fill:#fff;stroke:#707070;}.b{clip-path:url(#a);}.aa,.ab,.ac,.ad,.ae,.af,.ag,.ah,.ai,.aj,.ak,.al,.am,.an,.ao,.ap,.aq,.ar,.as,.at,.au,.av,.aw,.ax,.ay,.az,.ba,.bb,.bc,.bd,.be,.bf,.bg,.bh,.bi,.bj,.bk,.bl,.bm,.bn,.bo,.bp,.bq,.br,.bs,.bt,.bu,.bv,.bw,.bx,.by,.bz,.c,.ca,.cb,.cc,.cd,.ce,.cf,.d,.e,.f,.g,.h,.i,.j,.k,.l,.m,.n,.o,.p,.q,.r,.s,.t,.u,.v,.w,.x,.y,.z{fill:none;stroke-miterlimit:10;}.c{stroke:#fff;stroke-width:0.25px;}.d{stroke:#fffefc;stroke-width:0.272px;}.e{stroke:#fffdf9;stroke-width:0.293px;}.f{stroke:#fffcf6;stroke-width:0.315px;}.g{stroke:#fffbf3;stroke-width:0.336px;}.h{stroke:#fff9f0;stroke-width:0.358px;}.i{stroke:#fef8ed;stroke-width:0.38px;}.j{stroke:#fef7ea;stroke-width:0.401px;}.k{stroke:#fef6e7;stroke-width:0.423px;}.l{stroke:#fef5e4;stroke-width:0.444px;}.m{stroke:#fef4e1;stroke-width:0.466px;}.n{stroke:#fef3de;stroke-width:0.488px;}.o{stroke:#fef2db;stroke-width:0.509px;}.p{stroke:#fef0d8;stroke-width:0.531px;}.q{stroke:#feefd6;stroke-width:0.552px;}.r{stroke:#feeed3;stroke-width:0.574px;}.s{stroke:#fdedd0;stroke-width:0.596px;}.t{stroke:#fdeccd;stroke-width:0.617px;}.u{stroke:#fdebca;stroke-width:0.639px;}.v{stroke:#fdeac7;stroke-width:0.66px;}.w{stroke:#fde9c4;stroke-width:0.682px;}.x{stroke:#fde7c1;stroke-width:0.704px;}.y{stroke:#fde6be;stroke-width:0.725px;}.z{stroke:#fde5bb;stroke-width:0.747px;}.aa{stroke:#fde4b8;stroke-width:0.769px;}.ab{stroke:#fde3b5;stroke-width:0.79px;}.ac{stroke:#fce2b2;stroke-width:0.812px;}.ad{stroke:#fce1af;stroke-width:0.833px;}.ae{stroke:#fce0ac;stroke-width:0.855px;}.af{stroke:#fcdea9;stroke-width:0.877px;}.ag{stroke:#fcdda6;stroke-width:0.898px;}.ah{stroke:#fcdca3;stroke-width:0.92px;}.ai{stroke:#fcdba0;stroke-width:0.941px;}.aj{stroke:#fcda9d;stroke-width:0.963px;}.ak{stroke:#fcd99a;stroke-width:0.985px;}.al{stroke:#fcd897;stroke-width:1.006px;}.am{stroke:#fbd794;stroke-width:1.028px;}.an{stroke:#fbd591;stroke-width:1.049px;}.ao{stroke:#fbd48e;stroke-width:1.071px;}.ap{stroke:#fbd38b;stroke-width:1.093px;}.aq{stroke:#fbd288;stroke-width:1.114px;}.ar{stroke:#fbd186;stroke-width:1.136px;}.as{stroke:#fbd083;stroke-width:1.157px;}.at{stroke:#fbcf80;stroke-width:1.179px;}.au{stroke:#fbce7d;stroke-width:1.201px;}.av{stroke:#fbcc7a;stroke-width:1.222px;}.aw{stroke:#facb77;stroke-width:1.244px;}.ax{stroke:#faca74;stroke-width:1.265px;}.ay{stroke:#fac971;stroke-width:1.287px;}.az{stroke:#fac86e;stroke-width:1.309px;}.ba{stroke:#fac76b;stroke-width:1.33px;}.bb{stroke:#fac668;stroke-width:1.352px;}.bc{stroke:#fac565;stroke-width:1.373px;}.bd{stroke:#fac362;stroke-width:1.395px;}.be{stroke:#fac25f;stroke-width:1.417px;}.bf{stroke:#fac15c;stroke-width:1.438px;}.bg{stroke:#f9c059;stroke-width:1.46px;}.bh{stroke:#f9bf56;stroke-width:1.481px;}.bi{stroke:#f9be53;stroke-width:1.503px;}.bj{stroke:#f9bd50;stroke-width:1.525px;}.bk{stroke:#f9bc4d;stroke-width:1.546px;}.bl{stroke:#f9ba4a;stroke-width:1.568px;}.bm{stroke:#f9b947;stroke-width:1.59px;}.bn{stroke:#f9b844;stroke-width:1.611px;}.bo{stroke:#f9b741;stroke-width:1.633px;}.bp{stroke:#f9b63e;stroke-width:1.654px;}.bq{stroke:#f8b53b;stroke-width:1.676px;}.br{stroke:#f8b438;stroke-width:1.698px;}.bs{stroke:#f8b336;stroke-width:1.719px;}.bt{stroke:#f8b133;stroke-width:1.741px;}.bu{stroke:#f8b030;stroke-width:1.762px;}.bv{stroke:#f8af2d;stroke-width:1.784px;}.bw{stroke:#f8ae2a;stroke-width:1.806px;}.bx{stroke:#f8ad27;stroke-width:1.827px;}.by{stroke:#f8ac24;stroke-width:1.849px;}.bz{stroke:#f8ab21;stroke-width:1.87px;}.ca{stroke:#f7aa1e;stroke-width:1.892px;}.cb{stroke:#f7a81b;stroke-width:1.914px;}.cc{stroke:#f7a718;stroke-width:1.935px;}.cd{stroke:#f7a615;stroke-width:1.957px;}.ce{stroke:#f7a512;stroke-width:1.978px;}.cf{stroke:#f7a40f;stroke-width:2px;}</style><clipPath id="a"><rect class="a" width="1366" height="768"/></clipPath></defs><g class="b"><g transform="translate(626.922 -843.416)"><path class="c" d="M-630,1004.424s174.349-194.013,448.982-106.838,258.9,159.274,431.285,66.856S579.3,742.9,779.214,870.057" transform="translate(-13.265 0)"/><path class="d" d="M-630.475,1016s172.545-192.7,445.6-105.956c128.948,41,194.541,78.77,245.46,96.832,57.471,20.386,96.54,17.353,188.178-30.761,13.013-6.779,25.941-13.729,38.809-20.719,85.969-46.846,169.485-97.689,257.174-116.971,73.987-16.358,151-9.368,235.757,44.559" transform="translate(-13.101 -4.735)"/><path class="e" d="M-630.951,1027.565s170.74-191.391,442.217-105.074C-59.562,963.637,6.685,1001.623,58.115,1018.9c57.794,19.413,97.3,15.718,189.143-31.122q19.593-9.993,39.03-20.124c86.361-45.326,170.668-94.936,258.695-114.853,74.5-17.029,151.78-11.02,236.808,43.1" transform="translate(-12.938 -9.457)"/><path class="f" d="M-631.426,1039.115s168.936-190.08,438.835-104.192C-63.2,976.212,3.7,1014.42,55.647,1030.907c58.11,18.443,98.144,14.23,190.107-31.483Q265.438,989.64,285,979.895c86.753-43.806,171.851-92.182,260.216-112.736,75.005-17.7,152.556-12.672,237.86,41.643" transform="translate(-12.774 -14.166)"/><path class="g" d="M-631.9,1050.69S-464.77,861.92-196.449,947.38C-66.83,988.811.708,1027.244,53.178,1042.94c58.421,17.477,98.992,12.743,191.072-31.844,13.183-6.384,26.388-12.628,39.472-18.935C370.976,950.1,456.8,902.918,545.458,881.543c75.552-18.215,153.33-14.325,238.911,40.185" transform="translate(-12.61 -18.899)"/><path class="h" d="M-632.377,1062.223s165.327-187.458,432.07-102.428c129.842,41.574,198.018,80.233,251.015,95.136,58.726,16.515,99.844,11.26,192.036-32.205,13.245-6.245,26.536-12.263,39.693-18.339,87.668-40.486,174.274-86.448,263.258-108.5,76.071-18.852,154.106-15.978,239.962,38.727" transform="translate(-12.446 -23.59)"/><path class="i" d="M-632.852,1073.744S-469.329,887.6-204.164,972.2C-74.1,1013.915-5.29,1052.8,48.24,1066.91c59.026,15.557,100.7,9.779,193-32.566,13.307-6.1,26.682-11.9,39.914-17.745,88.078-38.911,175.469-83.656,264.778-106.383,76.59-19.49,154.881-17.63,241.014,37.268" transform="translate(-12.283 -28.269)"/><path class="j" d="M-633.327,1085.252s161.717-184.836,425.3-100.664c130.289,41.86,199.726,80.978,253.794,94.289,59.32,14.6,101.56,8.3,193.964-32.928,13.37-5.965,26.829-11.535,40.135-17.15,88.487-37.337,176.664-80.866,266.3-104.265,77.109-20.129,155.656-19.283,242.064,35.81" transform="translate(-12.119 -32.936)"/><path class="k" d="M-633.8,1096.749s159.913-183.526,421.923-99.782c130.512,42,200.572,81.356,255.182,93.865,59.61,13.654,102.424,6.825,194.929-33.288,13.433-5.826,26.974-11.171,40.356-16.555,88.893-35.765,177.858-78.078,267.821-102.148,77.629-20.77,156.431-20.936,243.116,34.352" transform="translate(-11.955 -37.591)"/><path class="l" d="M-634.278,1108.233s158.109-182.215,418.54-98.9C-85,1051.48-14.323,1091.071,40.833,1102.775c59.9,12.71,103.293,5.353,195.893-33.649,13.5-5.685,27.12-10.807,40.578-15.959,89.3-34.192,179.052-75.291,269.341-100.031,78.148-21.413,157.207-22.588,244.167,32.894" transform="translate(-11.791 -42.234)"/><path class="m" d="M-634.753,1119.708s156.3-180.9,415.158-98.018c130.959,42.289,202.254,82.121,257.96,93.017,60.177,11.77,104.167,3.884,196.858-34.01,13.563-5.545,27.265-10.443,40.8-15.365,89.7-32.622,180.247-72.507,270.863-97.913,78.667-22.057,157.982-24.241,245.218,31.435" transform="translate(-11.628 -46.866)"/><path class="n" d="M-635.228,1131.17s154.5-179.593,411.775-97.136c131.182,42.433,203.088,82.509,259.349,92.594,60.454,10.836,105.044,2.418,197.822-34.372,13.628-5.4,27.41-10.079,41.019-14.77,90.1-31.052,181.441-69.723,272.383-95.795,79.186-22.7,158.757-25.894,246.27,29.977" transform="translate(-11.464 -51.487)"/><path class="o" d="M-635.7,1142.623s152.7-178.282,408.393-96.254c131.406,42.575,203.919,82.9,260.737,92.17,60.727,9.907,105.926.956,198.787-34.732,13.694-5.263,27.554-9.716,41.24-14.175,90.494-29.483,182.635-66.942,273.9-93.678,79.705-23.348,159.532-27.546,247.322,28.519" transform="translate(-11.3 -56.098)"/><path class="p" d="M-636.179,1154.066s150.891-176.971,405.011-95.372c131.629,42.718,204.746,83.3,262.126,91.746,61,8.983,106.811-.5,199.751-35.093,13.76-5.121,27.7-9.353,41.461-13.58C363.059,1073.849,456,1037.6,547.6,1010.205c80.223-24,160.307-29.2,248.372,27.061" transform="translate(-11.136 -60.699)"/><path class="q" d="M-636.654,1165.5s149.086-175.66,401.628-94.49c131.853,42.861,205.572,83.7,263.515,91.322,61.263,8.064,107.7-1.958,200.716-35.454,13.827-4.979,27.842-8.991,41.682-12.986,91.282-26.351,185.023-61.384,276.947-89.443,80.742-24.645,161.082-30.851,249.424,25.6" transform="translate(-10.973 -65.289)"/><path class="r" d="M-637.13,1176.921s147.282-174.349,398.246-93.608c132.076,43,206.394,84.1,264.9,90.9,61.527,7.15,108.593-3.411,201.68-35.816,13.895-4.837,27.986-8.628,41.9-12.391,91.672-24.787,186.216-58.608,278.467-87.325,81.26-25.3,161.858-32.5,250.475,24.144" transform="translate(-10.808 -69.871)"/><path class="s" d="M-637.6,1188.335s145.477-173.038,394.863-92.725c132.3,43.147,207.212,84.506,266.292,90.474,61.788,6.241,109.49-4.859,202.645-36.176,13.962-4.694,28.129-8.265,42.124-11.8,92.06-23.225,187.409-55.833,279.988-85.207,81.779-25.948,162.633-34.157,251.526,22.686" transform="translate(-10.645 -74.443)"/><path class="t" d="M-638.08,1199.741s143.672-171.727,391.48-91.844c132.523,43.29,208.03,84.918,267.681,90.05,62.047,5.338,110.39-6.3,203.609-36.537,14.032-4.551,28.272-7.9,42.345-11.2,92.448-21.665,188.6-53.059,281.509-83.09,82.3-26.6,163.408-35.809,252.578,21.228" transform="translate(-10.481 -79.007)"/><path class="u" d="M-638.556,1211.138s142.03-170.917,388.1-90.961c132.834,43.162,208.844,85.335,269.069,89.626,62.3,4.439,111.293-7.744,204.573-36.9,14.1-4.407,28.415-7.541,42.567-10.605,92.833-20.107,189.795-50.288,283.03-80.972,82.815-27.255,164.183-37.461,253.629,19.77" transform="translate(-10.317 -83.562)"/><path class="v" d="M-639.031,1222.527s140.232-169.625,384.716-90.08c133.061,43.293,209.656,85.755,270.458,89.2,62.557,3.547,112.2-9.18,205.538-37.26,14.17-4.263,28.557-7.179,42.788-10.012,93.217-18.55,190.987-47.517,284.551-78.854,83.333-27.911,164.959-39.114,254.68,18.311" transform="translate(-10.153 -88.11)"/><path class="w" d="M-639.506,1233.908s138.433-168.332,381.333-89.2c133.289,43.424,210.467,86.18,271.847,88.779,62.81,2.659,113.11-10.611,206.5-37.621,14.241-4.118,28.7-6.818,43.009-9.416,93.6-17,192.18-44.748,286.073-76.737,83.85-28.568,165.733-40.767,255.731,16.853" transform="translate(-9.99 -92.649)"/><path class="x" d="M-639.981,1245.282s136.634-167.037,377.951-88.316c133.517,43.555,211.53,82.5,273.236,88.354,62.8,5.956,114.023-12.039,207.467-37.982,14.311-3.973,28.842-6.457,43.229-8.822,93.98-15.444,193.371-41.98,287.593-74.619,84.367-29.226,166.509-42.42,256.782,15.394" transform="translate(-9.826 -97.181)"/><path class="y" d="M-640.457,1256.648s134.836-165.742,374.568-87.434C-132.144,1212.9-53.6,1252.039,8.736,1257.145c63.107,5.168,114.939-13.462,208.431-38.343,14.382-3.827,28.983-6.1,43.451-8.227,94.359-13.895,194.563-39.213,289.114-72.5,84.885-29.885,167.284-44.072,257.834,13.937" transform="translate(-9.662 -101.705)"/><path class="z" d="M-640.932,1268.007s133.036-164.445,371.186-86.551c133.97,43.818,213.042,83.161,276.013,87.507,63.41,4.376,115.858-14.881,209.4-38.7,14.453-3.681,29.125-5.736,43.671-7.632,94.738-12.348,195.754-36.449,290.635-70.384,85.4-30.545,168.06-45.725,258.885,12.479" transform="translate(-9.499 -106.223)"/><path class="aa" d="M-641.407,1279.36s131.236-163.149,367.8-85.67c134.2,43.951,213.794,83.51,277.4,87.083,63.714,3.579,116.779-16.3,210.36-39.065,14.525-3.534,29.266-5.375,43.893-7.037,95.115-10.8,196.945-33.685,292.156-68.266,85.918-31.206,168.834-47.378,259.936,11.02" transform="translate(-9.335 -110.734)"/><path class="ab" d="M-641.883,1290.707s129.436-161.851,364.421-84.788C-143.037,1250-62.919,1289.79,1.33,1292.579c64.02,2.777,117.7-17.706,211.325-39.426,14.6-3.387,29.407-5.016,44.114-6.442,95.491-9.259,198.135-30.922,293.676-66.149,86.434-31.868,169.61-49.03,260.988,9.562" transform="translate(-9.171 -115.239)"/><path class="ac" d="M-642.358,1302.047s127.635-160.551,361.039-83.905c134.651,44.217,215.311,88.824,280.18,86.235,64.3-2.567,118.63-19.111,212.289-39.787,14.67-3.238,29.549-4.656,44.335-5.847,95.866-7.718,199.325-28.161,295.2-64.031,86.949-32.532,170.385-50.683,262.038,8.1" transform="translate(-9.007 -119.737)"/><path class="ad" d="M-642.833,1313.381S-517,1154.13-285.177,1230.358c134.878,44.351,216.116,89.281,281.569,85.811,64.552-3.422,119.558-20.511,213.254-40.148,14.743-3.09,29.69-4.3,44.555-5.253,96.241-6.18,200.514-25.4,296.719-61.914,87.465-33.2,171.16-52.335,263.09,6.646" transform="translate(-8.844 -124.23)"/><path class="ae" d="M-643.309,1324.71s124.034-157.95,354.274-82.141c135.1,44.485,216.921,89.741,282.958,85.388,64.8-4.272,120.488-21.908,214.218-40.509,14.816-2.941,29.831-3.939,44.777-4.658,96.615-4.644,201.7-22.642,298.24-59.8,87.98-33.861,171.935-53.988,264.141,5.187" transform="translate(-8.68 -128.717)"/><path class="af" d="M-643.784,1336.033s122.233-156.649,350.892-81.259c135.331,44.619,217.727,90.205,284.347,84.964,65.045-5.118,121.421-23.3,215.182-40.87,14.889-2.791,29.972-3.581,45-4.062,96.989-3.11,202.892-19.884,299.76-57.679,88.495-34.528,172.711-55.64,265.193,3.729" transform="translate(-8.516 -133.198)"/><path class="ag" d="M-644.259,1347.35S-523.828,1192-296.75,1266.973c135.557,44.753,218.532,90.674,285.736,84.54,65.293-5.96,122.355-24.687,216.147-41.231,14.963-2.64,30.113-3.223,45.219-3.468,97.363-1.578,204.081-17.127,301.281-55.561,89.009-35.2,173.486-57.294,266.244,2.27" transform="translate(-8.352 -137.674)"/><path class="ah" d="M-644.735,1358.663s118.63-154.042,344.127-79.5c135.784,44.889,219.339,91.147,287.124,84.116,65.541-6.8,123.291-26.069,217.111-41.591,15.037-2.488,30.258-2.49,45.44-2.873,97.7-2.468,205.269-14.371,302.8-53.444,89.523-35.863,174.261-58.946,267.3.813" transform="translate(-8.188 -142.145)"/><path class="ai" d="M-645.21,1369.971s116.827-152.738,340.744-78.614c136.01,45.025,220.145,91.624,288.513,83.692,65.789-7.633,124.227-27.447,218.076-41.953,15.112-2.336,30.394-2.507,45.661-2.277,98.109,1.478,206.456-11.617,304.323-51.326,90.037-36.532,175.036-60.6,268.347-.645" transform="translate(-8.025 -146.611)"/><path class="aj" d="M-645.685,1381.274s115.025-151.433,337.362-77.732c136.236,45.16,220.952,92.1,289.9,83.269,66.039-8.464,125.166-28.82,219.04-42.313,15.186-2.183,30.535-2.151,45.881-1.683,98.482,3,207.644-8.863,305.845-49.209,90.549-37.2,175.811-62.251,269.4-2.1" transform="translate(-7.861 -151.072)"/><path class="ak" d="M-646.16,1392.572s113.222-150.126,333.979-76.849c136.461,45.3,221.761,92.589,291.291,82.845,66.289-9.29,126.106-30.189,220-42.675,15.261-2.029,30.676-1.795,46.1-1.088,98.855,4.526,208.83-6.109,307.365-47.091,91.062-37.873,176.586-63.9,270.449-3.562" transform="translate(-7.697 -155.529)"/><path class="al" d="M-646.636,1403.867s111.419-148.82,330.6-75.968c136.687,45.434,222.57,93.078,292.679,82.421,66.54-10.114,127.046-31.552,220.969-43.036,15.336-1.874,30.817-1.438,46.324-.493,99.228,6.046,210.017-3.358,308.886-44.973,91.575-38.546,177.362-65.557,271.5-5.021" transform="translate(-7.533 -159.981)"/><path class="am" d="M-647.111,1415.157S-537.5,1267.645-319.9,1340.071c136.913,45.571,223.381,93.57,294.068,82,66.792-10.935,127.988-32.912,221.934-43.4,15.41-1.72,30.958-1.082,46.545.1,99.6,7.564,211.2-.606,310.407-42.856,92.087-39.217,178.137-67.209,272.552-6.478" transform="translate(-7.37 -164.43)"/><path class="an" d="M-647.586,1426.442s107.812-146.2,323.831-74.2c137.138,45.708,224.192,94.065,295.457,81.573,67.045-11.752,128.93-34.266,222.9-43.758,15.486-1.564,31.1-.726,46.766.7,99.976,9.081,212.388,2.144,311.928-40.738,92.6-39.891,178.913-68.861,273.6-7.937" transform="translate(-7.206 -168.874)"/><path class="ao" d="M-648.062,1437.724s106.009-144.893,320.45-73.321c137.363,45.847,225,94.564,296.845,81.149,67.3-12.566,129.873-35.617,223.863-44.119,15.56-1.408,31.24-.372,46.987,1.291,100.351,10.6,213.573,4.893,313.449-38.62,93.11-40.566,179.687-70.515,274.655-9.4" transform="translate(-7.042 -173.314)"/><path class="ap" d="M-648.537,1449s104.2-143.583,317.067-72.44c137.588,45.985,225.818,95.066,298.234,80.725,67.554-13.378,130.816-36.962,224.827-44.48,15.636-1.25,31.382-.016,47.209,1.886,100.725,12.108,214.758,7.642,314.97-36.5,93.62-41.241,180.462-72.167,275.705-10.854" transform="translate(-6.878 -177.75)"/><path class="aq" d="M-649.012,1460.277s102.4-142.271,313.684-71.557c137.813,46.124,226.634,95.571,299.623,80.3,67.81-14.187,131.76-38.3,225.792-44.841,15.711-1.093,31.523.338,47.429,2.481,101.1,13.619,215.943,10.39,316.491-34.384,94.131-41.917,181.237-73.82,276.757-12.312" transform="translate(-6.715 -182.183)"/><path class="ar" d="M-649.488,1471.548s100.6-140.959,310.3-70.675c138.038,46.264,227.45,96.08,301.012,79.878,68.068-14.993,132.7-39.64,226.756-45.2,15.786-.933,31.664.693,47.65,3.076,101.477,15.128,217.126,13.136,318.012-32.268,94.641-42.594,182.013-75.472,277.808-13.77" transform="translate(-6.551 -186.612)"/><path class="as" d="M-649.963,1482.815s98.79-139.646,306.92-69.793c138.263,46.4,228.269,96.591,302.4,79.453C27.685,1476.68,93,1451.5,187.078,1446.913c15.862-.774,31.8,1.047,47.871,3.671,101.853,16.635,218.31,15.883,319.532-30.15,95.151-43.271,182.788-77.125,278.859-15.228" transform="translate(-6.387 -191.038)"/><path class="at" d="M-650.438,1494.08s96.985-138.333,303.537-68.911c138.487,46.545,229.089,97.106,303.79,79.03,68.588-16.6,134.59-42.3,228.685-45.925,15.937-.614,31.947,1.4,48.092,4.266,102.232,18.141,219.493,18.628,321.054-28.032,95.66-43.949,183.564-78.777,279.911-16.686" transform="translate(-6.223 -195.461)"/><path class="au" d="M-650.914,1505.341s95.18-137.018,300.155-68.029c138.711,46.686,229.91,97.624,305.178,78.606,68.85-17.4,135.559-49.749,229.649-46.285,16.007.589,32.088,1.754,48.313,4.86,102.61,19.645,220.675,21.373,322.574-25.915,96.169-44.628,184.338-80.43,280.962-18.145" transform="translate(-6.059 -199.88)"/><path class="av" d="M-651.389,1516.6s93.374-135.7,296.773-67.147c138.935,46.827,230.734,98.144,306.567,78.182,69.114-18.193,136.561-51.011,230.614-46.646,16.073.746,32.23,2.108,48.535,5.455,102.989,21.147,221.857,24.117,324.095-23.8,96.677-45.308,185.114-82.083,282.013-19.6" transform="translate(-5.896 -204.297)"/><path class="aw" d="M-651.864,1527.854s91.568-134.385,293.39-66.265c139.159,46.969,231.558,98.667,307.956,77.758,69.379-18.988,137.562-52.26,231.578-47.007,16.137.9,32.372,2.461,48.756,6.05,103.369,22.648,223.039,26.86,325.616-21.68,97.185-45.988,185.888-83.735,283.064-21.061" transform="translate(-5.732 -208.71)"/><path class="ax" d="M-652.34,1539.107s89.762-133.068,290.008-65.383c139.382,47.112,232.385,99.192,309.345,77.334,69.646-19.781,138.559-53.5,232.543-47.369,16.2,1.057,32.514,2.814,48.976,6.645,103.751,24.148,224.22,29.6,327.138-19.562,97.692-46.669,186.664-85.388,284.115-22.519" transform="translate(-5.568 -213.121)"/><path class="ay" d="M-652.815,1550.357s87.955-131.75,286.625-64.5c139.607,47.256,233.214,99.719,310.734,76.91,69.914-20.571,139.553-54.724,233.508-47.729,16.268,1.211,32.656,3.166,49.2,7.239,104.133,25.646,225.4,32.345,328.658-17.444,98.2-47.351,187.439-87.04,285.167-23.978" transform="translate(-5.404 -217.529)"/><path class="az" d="M-653.29,1561.6s86.148-130.431,283.243-63.618c139.829,47.4,234.043,100.25,312.122,76.486,70.184-21.361,140.544-55.939,234.472-48.09,16.334,1.365,32.8,3.519,49.419,7.835,104.516,27.143,226.581,35.087,330.179-15.326,98.706-48.033,188.215-88.693,286.218-25.436" transform="translate(-5.241 -221.934)"/><path class="ba" d="M-653.765,1572.848s84.341-129.112,279.86-62.737c140.052,47.545,234.875,100.782,313.511,76.062,70.455-22.147,141.178-51.48,235.436-48.451,16.461.529,32.942,3.87,49.639,8.43,104.9,28.638,227.762,37.827,331.7-13.209,99.213-48.716,188.99-90.346,287.269-26.894" transform="translate(-5.077 -226.337)"/><path class="bb" d="M-654.241,1584.09s82.534-127.791,276.478-61.855c140.275,47.691,235.709,101.317,314.9,75.639,70.728-22.934,142.115-52.776,236.4-48.812,16.536.7,33.084,4.223,49.861,9.025,105.285,30.134,228.941,40.567,333.221-11.092,99.719-49.4,189.765-92,288.321-28.352" transform="translate(-4.913 -230.737)"/><path class="bc" d="M-654.716,1595.329s80.726-126.47,273.1-60.973c140.5,47.837,236.545,101.854,316.289,75.216,71-23.718,143.052-54.069,237.365-49.174,16.609.863,33.227,4.575,50.082,9.62,105.671,31.627,230.12,43.307,334.742-8.974,100.223-50.083,190.54-93.651,289.372-29.81" transform="translate(-4.749 -235.134)"/><path class="bd" d="M-655.191,1606.566s78.918-125.148,269.713-60.091c140.72,47.983,237.382,102.392,317.678,74.792,71.279-24.5,143.986-55.358,238.329-49.534,16.683,1.03,33.37,4.927,50.3,10.214,106.059,33.12,231.3,46.046,336.263-6.856,100.728-50.769,191.315-95.3,290.423-31.269" transform="translate(-4.586 -239.53)"/><path class="be" d="M-655.667,1617.8s77.11-123.825,266.331-59.209c140.942,48.13,238.221,102.932,319.066,74.368,71.557-25.283,144.92-56.644,239.293-49.9,16.757,1.2,33.514,5.278,50.524,10.81,106.448,34.612,232.477,48.785,337.784-4.739,101.233-51.453,192.09-96.957,291.475-32.727" transform="translate(-4.422 -243.923)"/><path class="bf" d="M-656.142,1629.035s75.3-122.5,262.948-58.327c141.164,48.279,239.062,103.474,320.455,73.944,71.837-26.064,145.852-57.926,240.258-50.257,16.83,1.367,33.657,5.63,50.745,11.4,106.837,36.1,233.655,51.523,339.3-2.622,101.737-52.139,192.866-98.608,292.526-34.185" transform="translate(-4.258 -248.314)"/><path class="bg" d="M-656.617,1640.265s73.493-121.177,259.566-57.445c141.386,48.427,239.905,104.018,321.844,73.519,72.117-26.842,146.782-59.2,241.222-50.618,16.9,1.537,33.8,5.981,50.966,12,107.228,37.593,234.832,54.261,340.825-.5,102.241-52.825,193.641-100.261,293.577-35.643" transform="translate(-4.094 -252.703)"/><path class="bh" d="M-657.093,1651.493s71.684-119.852,256.183-56.562c141.607,48.576,240.75,104.564,323.233,73.1,72.4-27.621,147.711-60.479,242.187-50.978,16.976,1.708,33.944,6.332,51.187,12.594,107.62,39.083,236.01,57,342.347,1.614,102.744-53.512,194.417-101.914,294.629-37.1" transform="translate(-3.93 -257.09)"/><path class="bi" d="M-657.568,1662.72s69.875-118.527,252.8-55.681c141.829,48.726,241.6,105.111,324.622,72.672,72.684-28.4,148.637-61.753,243.151-51.34,17.049,1.878,34.089,6.684,51.408,13.189,108.013,40.572,237.187,59.734,343.867,3.732,103.247-54.2,195.191-103.567,295.68-38.56" transform="translate(-3.767 -261.474)"/><path class="bj" d="M-658.043,1673.944s68.065-117.2,249.418-54.8c142.049,48.877,242.444,105.659,326.01,72.248,72.97-29.175,149.562-63.022,244.116-51.7,17.12,2.05,34.233,7.034,51.629,13.783,108.407,42.06,238.362,62.47,345.389,5.849,103.749-54.888,195.966-105.22,296.731-40.018" transform="translate(-3.603 -265.857)"/><path class="bk" d="M-658.519,1685.167s66.255-115.872,246.036-53.917c142.27,49.029,243.3,106.21,327.4,71.824,73.258-29.95,150.485-64.289,245.08-52.062,17.192,2.223,34.377,7.385,51.85,14.379,108.8,43.547,239.539,65.206,346.91,7.966,104.251-55.576,196.741-106.871,297.782-41.476" transform="translate(-3.439 -270.239)"/><path class="bl" d="M-658.994,1696.389s64.445-114.545,242.654-53.035c142.49,49.181,244.147,106.761,328.788,71.4,73.546-30.725,151.406-65.553,246.045-52.422,17.264,2.4,34.521,7.736,52.071,14.973,109.2,45.035,240.714,67.941,348.43,10.084,104.753-56.265,197.517-108.525,298.833-42.935" transform="translate(-3.275 -274.618)"/><path class="bm" d="M-659.469,1707.608s62.635-113.216,239.271-52.153c142.71,49.335,245,107.313,330.177,70.976,73.836-31.5,152.325-66.814,247.009-52.784,17.335,2.569,34.667,8.086,52.292,15.568,109.595,46.521,241.889,70.676,349.951,12.2,105.254-56.955,198.292-110.177,299.885-44.393" transform="translate(-3.112 -278.995)"/><path class="bn" d="M-659.944,1718.825s60.824-111.886,235.888-51.27c142.93,49.488,245.856,107.867,331.566,70.552,74.128-32.272,153.242-68.073,247.974-53.145,17.405,2.742,34.811,8.437,52.513,16.163,109.994,48.007,243.064,73.41,351.472,14.319,105.755-57.645,199.068-111.83,300.936-45.851" transform="translate(-2.948 -283.371)"/><path class="bo" d="M-660.42,1730.041s59.013-110.555,232.507-50.388c143.149,49.644,246.713,108.422,332.954,70.128,74.422-33.045,154.157-69.329,248.938-53.505,17.476,2.917,34.956,8.787,52.734,16.758,110.393,49.493,244.238,76.144,352.993,16.437,106.256-58.336,199.843-113.482,301.987-47.31" transform="translate(-2.784 -287.745)"/><path class="bp" d="M-660.9,1741.255s57.2-109.224,229.124-49.506c143.368,49.8,247.571,108.978,334.343,69.7,74.716-33.817,155.069-70.583,249.9-53.867,17.546,3.092,35.1,9.137,52.955,17.352,110.793,50.978,245.412,78.878,354.514,18.554,106.755-59.026,200.617-115.135,303.038-48.767" transform="translate(-2.62 -292.118)"/><path class="bq" d="M-661.37,1752.469s55.39-107.893,225.741-48.625C-292.042,1753.8-187.2,1813.379-99.9,1773.125c75.012-34.589,155.979-71.835,250.867-54.228,17.615,3.269,35.247,9.488,53.177,17.948,111.194,52.464,246.586,81.611,356.035,20.672,107.255-59.717,201.392-116.787,304.089-50.226" transform="translate(-2.457 -296.489)"/><path class="br" d="M-661.846,1763.679s53.578-106.56,222.359-47.742c143.805,50.114,249.295,110.093,337.121,68.857,75.31-35.36,156.887-73.084,251.832-54.588,17.684,3.444,35.392,9.838,53.4,18.542,111.6,53.948,247.759,84.344,357.556,22.79,107.754-60.409,202.168-118.44,305.141-51.684" transform="translate(-2.293 -300.858)"/><path class="bs" d="M-662.321,1774.889s51.767-105.226,218.976-46.86c144.024,50.272,250.158,110.652,338.51,68.433,75.609-36.13,157.793-74.331,252.8-54.949,17.753,3.622,35.538,10.189,53.618,19.137,112,55.432,248.932,87.076,359.077,24.907,108.253-61.1,202.943-120.093,306.192-53.142" transform="translate(-2.129 -305.226)"/><path class="bt" d="M-662.8,1786.1s49.954-103.893,215.594-45.978c144.241,50.432,251.023,111.212,339.9,68.009,75.91-36.9,158.7-75.577,253.761-55.311,17.821,3.8,35.683,10.539,53.839,19.732,112.4,56.917,250.1,89.808,360.6,27.025,108.752-61.794,203.719-121.746,307.243-54.6" transform="translate(-1.965 -309.593)"/><path class="bu" d="M-663.272,1797.3s48.034-102.25,212.212-45.1c144.363,50.864,251.89,111.773,341.287,67.585,76.211-37.669,159.6-76.821,254.725-55.672,17.889,3.977,35.829,10.889,54.06,20.327,112.811,58.4,251.277,92.54,362.119,29.143,109.25-62.486,204.494-123.4,308.295-56.058" transform="translate(-1.801 -313.958)"/><path class="bv" d="M-663.747,1808.51s46.229-100.939,208.829-44.214c144.587,51.007,252.759,112.334,342.676,67.162,76.513-38.439,160.494-78.062,255.688-56.033,17.957,4.156,35.976,11.24,54.282,20.923,113.216,59.884,252.448,95.271,363.64,31.26,109.748-63.179,205.269-125.05,309.347-57.517" transform="translate(-1.638 -318.322)"/><path class="bw" d="M-664.222,1819.693s44.425-99.628,205.446-43.333c144.81,51.15,253.629,112.9,344.065,66.739,76.817-39.208,161.39-79.3,256.653-56.394,18.023,4.334,36.122,11.59,54.5,21.517,113.623,61.368,253.5,97.79,365.161,33.377,110.123-64.083,206.044-126.7,310.4-58.976" transform="translate(-1.474 -322.662)"/><path class="bx" d="M-664.7,1830.9s42.62-98.317,202.064-42.451c145.034,51.293,254.5,113.459,345.454,66.315,77.123-39.977,162.283-80.54,257.618-56.756,18.09,4.513,36.269,11.94,54.723,22.112,114.032,62.852,254.68,100.542,366.682,35.5,110.632-64.756,206.819-128.356,311.449-60.434" transform="translate(-1.31 -327.026)"/><path class="by" d="M-665.173,1842.1s40.816-97.006,198.682-41.569c145.257,51.436,255.373,114.022,346.842,65.89,77.43-40.744,163.174-81.777,258.582-57.115,18.155,4.693,36.415,12.29,54.944,22.707,114.441,64.335,255.863,103.3,368.2,37.612,111.141-65.428,207.594-130.008,312.5-61.891" transform="translate(-1.146 -331.389)"/><path class="bz" d="M-665.648,1853.3s39.011-95.7,195.3-40.686c145.48,51.579,256.248,114.587,348.231,65.466,77.738-41.513,164.062-83.013,259.546-57.477a229.577,229.577,0,0,1,55.166,23.3c114.974,65.6,257.046,106.05,369.723,39.73,111.65-66.1,208.37-131.661,313.552-63.35" transform="translate(-0.983 -335.75)"/><path class="ca" d="M-666.123,1864.507s37.206-94.385,191.917-39.8c145.7,51.721,257.124,115.151,349.62,65.043,78.047-42.282,164.948-84.247,260.511-57.838a231.634,231.634,0,0,1,55.387,23.9c115.365,67.123,258.229,108.8,371.244,41.847,112.159-66.771,209.145-133.313,314.6-64.808" transform="translate(-0.819 -340.11)"/><path class="cb" d="M-666.6,1875.707s35.4-93.073,188.534-38.922c145.927,51.865,258,115.716,351.009,64.619,78.358-43.049,165.832-85.479,261.475-58.2a233.78,233.78,0,0,1,55.608,24.492c115.757,68.642,259.413,111.556,372.765,43.965,112.668-67.444,209.921-134.967,315.654-66.266" transform="translate(-0.655 -344.469)"/><path class="cc" d="M-667.074,1886.907s33.6-91.763,185.152-38.04c146.151,52.007,258.88,116.282,352.4,64.195,78.669-43.817,166.712-86.711,262.44-58.56a236,236,0,0,1,55.828,25.086c116.149,70.163,260.6,114.309,374.287,46.084,113.176-68.117,210.695-136.619,316.7-67.725" transform="translate(-0.491 -348.827)"/><path class="cd" d="M-667.549,1898.105s31.793-90.452,181.77-37.158c146.373,52.15,259.848,117,353.786,63.771,79.056-44.452,167.59-87.941,263.4-58.921a238.3,238.3,0,0,1,56.05,25.681c116.541,71.682,261.779,117.063,375.807,48.2,113.686-68.788,211.47-138.271,317.756-69.183" transform="translate(-0.328 -353.183)"/><path class="ce" d="M-668.025,1909.3s29.989-89.141,178.388-36.277c146.6,52.293,260.686,117.493,355.175,63.347,79.334-45.286,168.429-89.052,264.369-59.282a241.691,241.691,0,0,1,56.27,26.276c116.933,73.2,262.963,119.815,377.328,50.318,114.194-69.46,212.245-139.924,318.808-70.641" transform="translate(-0.164 -357.539)"/><path class="cf" d="M-668.5,1920.5s28.184-87.83,175-35.394,261.524,117.981,356.564,62.923,204.5-107.493,321.825-32.772,264.146,122.569,378.849,52.436,213.021-141.577,319.859-72.1" transform="translate(0 -361.893)"/></g></g></svg>