<svg xmlns="http://www.w3.org/2000/svg" xmlns:xlink="http://www.w3.org/1999/xlink" width="158.007" height="158.007" viewBox="0 0 158.007 158.007"><defs><style>.a{fill:#feb62d;}.b{fill:none;stroke:#fff;stroke-linecap:round;stroke-linejoin:round;stroke-width:4px;}.c{filter:url(#a);}</style><filter id="a" x="0" y="0" width="158.007" height="158.007" filterUnits="userSpaceOnUse"><feOffset dy="3" input="SourceAlpha"/><feGaussianBlur stdDeviation="3" result="b"/><feFlood flood-opacity="0.161"/><feComposite operator="in" in2="b"/><feComposite in="SourceGraphic"/></filter></defs><g transform="translate(-165.496 -5913)"><g class="c" transform="matrix(1, 0, 0, 1, 165.5, 5913)"><rect class="a" width="99" height="99" rx="20" transform="translate(9 76) rotate(-45)"/></g><path class="b" d="M27.48,9.016A9.4,9.4,0,0,1,34.9,16.439M27.48,1.5A16.912,16.912,0,0,1,42.419,16.42m-1.879,15v5.637a3.758,3.758,0,0,1-4.1,3.758,37.187,37.187,0,0,1-16.217-5.769A36.643,36.643,0,0,1,8.952,23.767,37.187,37.187,0,0,1,3.183,7.476a3.758,3.758,0,0,1,3.739-4.1H12.56a3.758,3.758,0,0,1,3.758,3.232,24.127,24.127,0,0,0,1.315,5.28,3.758,3.758,0,0,1-.846,3.965L14.4,18.243A30.066,30.066,0,0,0,25.676,29.517l2.386-2.386a3.758,3.758,0,0,1,3.965-.846,24.128,24.128,0,0,0,5.28,1.315A3.758,3.758,0,0,1,40.54,31.415Z" transform="translate(219.581 5968.749)"/></g></svg>