<svg xmlns="http://www.w3.org/2000/svg" xmlns:xlink="http://www.w3.org/1999/xlink" width="158.007" height="158.007" viewBox="0 0 158.007 158.007"><defs><style>.a{fill:#2250b3;}.b{fill:none;stroke-linejoin:round;}.c,.d{stroke:none;}.d{fill:#f7f7f7;}.e{filter:url(#a);}</style><filter id="a" x="0" y="0" width="158.007" height="158.007" filterUnits="userSpaceOnUse"><feOffset dy="3" input="SourceAlpha"/><feGaussianBlur stdDeviation="3" result="b"/><feFlood flood-opacity="0.161"/><feComposite operator="in" in2="b"/><feComposite in="SourceGraphic"/></filter></defs><g transform="translate(-165.496 -6069)"><g class="e" transform="matrix(1, 0, 0, 1, 165.5, 6069)"><rect class="a" width="99" height="99" rx="20" transform="translate(9 76) rotate(-45)"/></g><g class="b" transform="translate(219.954 6126.912)"><path class="c" d="M34.313,13.5H23.625v3.938a5.063,5.063,0,0,1-10.125,0V8.887L8.937,11.63A4.49,4.49,0,0,0,6.75,15.483v3.326L1.125,22.057A2.245,2.245,0,0,0,.3,25.13l5.625,9.745A2.251,2.251,0,0,0,9,35.7l7.27-4.2h9.6a4.5,4.5,0,0,0,4.5-4.5H31.5a2.248,2.248,0,0,0,2.25-2.25v-4.5h.563A1.683,1.683,0,0,0,36,18.563V15.188A1.683,1.683,0,0,0,34.313,13.5ZM44.7,10.87,39.073,1.125A2.251,2.251,0,0,0,36,.3L28.73,4.5H21.544a4.534,4.534,0,0,0-2.384.682L16.8,6.652A2.235,2.235,0,0,0,15.75,8.557v8.88a2.813,2.813,0,0,0,5.625,0V11.25H34.313a3.94,3.94,0,0,1,3.938,3.938v2l5.625-3.248A2.252,2.252,0,0,0,44.7,10.87Z"/><path class="d" d="M 37.1235466003418 0.00151824951171875 C 36.74151229858398 0.001514434814453125 36.35436630249023 0.09851837158203125 35.99999618530273 0.3023414611816406 L 28.72968482971191 4.5 L 21.54375457763672 4.5 C 20.70000457763672 4.5 19.87734413146973 4.739059448242188 19.16015434265137 5.182029724121094 L 16.80468559265137 6.651559829711914 C 16.14374542236328 7.059379577636719 15.7499942779541 7.783590316772461 15.7499942779541 8.557029724121094 L 15.7499942779541 17.4375 C 15.7499942779541 18.99140930175781 17.00859451293945 20.25 18.56250381469727 20.25 C 20.11640548706055 20.25 21.37500381469727 18.99140930175781 21.37500381469727 17.4375 L 21.37500381469727 11.25 L 34.31249618530273 11.25 C 36.48515319824219 11.25 38.24999618530273 13.01483917236328 38.24999618530273 15.1875 L 38.24999618530273 17.19141006469727 L 43.87499618530273 13.94297027587891 C 44.95078659057617 13.31719017028809 45.31640625 11.94609069824219 44.69765472412109 10.87030982971191 L 39.07265472412109 1.125 C 38.6577262878418 0.4035873413085938 37.90127944946289 0.001529693603515625 37.1235466003418 0.00151824951171875 M 13.4999942779541 8.887500762939453 L 8.936714172363281 11.62969017028809 C 7.579685211181641 12.43828010559082 6.749996185302734 13.90781021118164 6.749996185302734 15.48280906677246 L 6.749996185302734 18.80858993530273 L 1.124996185302734 22.05702972412109 C 0.04921340942382812 22.67578125 -0.3234367370605469 24.05390930175781 0.3023452758789062 25.12969017028809 L 5.927345275878906 34.875 C 6.546092987060547 35.95077514648438 7.924217224121094 36.31641387939453 8.999996185302734 35.69765090942383 L 16.27031517028809 31.5 L 25.87500381469727 31.5 C 28.35703468322754 31.5 30.37499618530273 29.48202896118164 30.37499618530273 27 L 31.49999618530273 27 C 32.74452590942383 27 33.74999618530273 25.99452972412109 33.74999618530273 24.75 L 33.74999618530273 20.25 L 34.31249618530273 20.25 C 35.24765396118164 20.25 35.99999618530273 19.49765968322754 35.99999618530273 18.5625 L 35.99999618530273 15.1875 C 35.99999618530273 14.25234031677246 35.24765396118164 13.5 34.31249618530273 13.5 L 23.62500381469727 13.5 L 23.62500381469727 17.4375 C 23.62500381469727 20.22891044616699 21.35390472412109 22.5 18.56250381469727 22.5 C 15.77109527587891 22.5 13.4999942779541 20.22891044616699 13.4999942779541 17.4375 L 13.4999942779541 8.887500762939453 M 37.12348556518555 -2.998481750488281 C 37.12349319458008 -2.998481750488281 37.12351608276367 -2.998481750488281 37.1235237121582 -2.998481750488281 C 38.99761581420898 -2.998458862304688 40.74094390869141 -1.991561889648438 41.67318344116211 -0.3707389831542969 L 47.29589462280273 9.370599746704102 C 47.99586486816406 10.58757972717285 48.1811637878418 11.99954986572266 47.8199462890625 13.35037040710449 C 47.45882415771484 14.70085906982422 46.59351348876953 15.83226013183594 45.3834342956543 16.53615951538086 C 45.3807258605957 16.53772926330566 45.37800598144531 16.53931045532227 45.37528610229492 16.54088020324707 L 39.75028610229492 19.78931999206543 C 39.4274787902832 19.97574043273926 39.0786247253418 20.09733390808105 38.72182083129883 20.15410995483398 C 38.35630798339844 21.16365432739258 37.65341949462891 22.01291275024414 36.74999618530273 22.56510925292969 L 36.74999618530273 24.75 C 36.74999618530273 27.18918228149414 35.07799530029297 29.24516868591309 32.81988525390625 29.83200073242188 C 31.70018005371094 32.56764984130859 29.00894546508789 34.5 25.87500381469727 34.5 L 17.07418632507324 34.5 L 10.50002288818359 38.29571151733398 C 9.699195861816406 38.75632095336914 8.793453216552734 38.99848175048828 7.876445770263672 38.99848175048828 C 6.002384185791016 38.99848175048828 4.259063720703125 37.9915885925293 3.326816558837891 36.3707389831543 L -2.293125152587891 26.63419723510742 C -2.997325897216797 25.42121887207031 -3.185756683349609 24.00673866271973 -2.823623657226562 22.65085983276367 C -2.461128234863281 21.29362869262695 -1.591785430908203 20.16034507751465 -0.3752937316894531 19.4591236114502 L -0.3752937316894531 19.45911979675293 L 3.749996185302734 17.07676315307617 L 3.749996185302734 15.48280906677246 C 3.749996185302734 12.86124420166016 5.146026611328125 10.3997859954834 7.393756866455078 9.056888580322266 L 11.95475387573242 6.316070556640625 C 12.42128753662109 6.035720825195312 12.94565963745117 5.892663955688477 13.47139549255371 5.887636184692383 C 13.8926830291748 5.172563552856445 14.4864559173584 4.558757781982422 15.22077560424805 4.103759765625 L 17.57220458984375 2.636749267578125 C 17.57602500915527 2.634368896484375 17.5798454284668 2.631999969482422 17.58367538452148 2.629638671875 C 18.78017425537109 1.890621185302734 20.14954566955566 1.5 21.54375457763672 1.5 L 27.92581939697266 1.5 L 34.49995422363281 -2.295711517333984 C 35.30078506469727 -2.756328582763672 36.20649337768555 -2.998481750488281 37.12348556518555 -2.998481750488281 Z"/></g></g></svg>