<svg xmlns="http://www.w3.org/2000/svg" width="128.486" height="27.111" viewBox="0 0 128.486 27.111"><defs><style>.a{fill:#f7f6f4;}.b{fill:#fff;}.c{fill:#feb62d;}</style></defs><g transform="translate(-204.487 -302.509)"><path class="a" d="M5.426-63.054v-3.262a4.161,4.161,0,0,1,1.682-3.33L13.426-75a3.585,3.585,0,0,0,1.545-2.747v-1.03a2.01,2.01,0,0,0-.5-1.528,2.353,2.353,0,0,0-1.631-.463h-1.2a2.1,2.1,0,0,0-1.545.463,2.157,2.157,0,0,0-.446,1.528v1.1q0,.755-.721.755H6.01q-.721,0-.721-.755v-1.167a5.5,5.5,0,0,1,1.476-4.12,5.745,5.745,0,0,1,4.189-1.442h2.609a5.745,5.745,0,0,1,4.189,1.442,5.5,5.5,0,0,1,1.476,4.12v1.373a5.564,5.564,0,0,1-2.06,4.429l-6.454,5.493a1.109,1.109,0,0,0-.412.824v.549h8.205a.637.637,0,0,1,.721.721v2.4a.637.637,0,0,1-.721.721H6.147A.637.637,0,0,1,5.426-63.054Zm26.882.721h-4.12a5.071,5.071,0,0,1-3.725-1.339,5.022,5.022,0,0,1-1.356-3.742V-79.328a5.022,5.022,0,0,1,1.356-3.742,5.071,5.071,0,0,1,3.725-1.339h4.12a5.071,5.071,0,0,1,3.725,1.339,5.022,5.022,0,0,1,1.356,3.742v1.682a.425.425,0,0,1-.481.481H35.364a.425.425,0,0,1-.481-.481v-1.579q0-2.987-2.884-2.987H28.463q-2.85,0-2.85,2.987v11.707q0,2.987,2.85,2.987H32q2.884,0,2.884-2.987V-69.1a.425.425,0,0,1,.481-.481h1.545a.425.425,0,0,1,.481.481v1.682a5.022,5.022,0,0,1-1.356,3.742A5.071,5.071,0,0,1,32.308-62.334Zm15.9,0H46.419a5.071,5.071,0,0,1-3.725-1.339,5.022,5.022,0,0,1-1.356-3.742v-7.347A5.022,5.022,0,0,1,42.694-78.5a5.071,5.071,0,0,1,3.725-1.339h7.45a.425.425,0,0,1,.481.481v16.548a.425.425,0,0,1-.481.481H52.324a.425.425,0,0,1-.481-.481v-1.339h-.137Q50.848-62.334,48.2-62.334Zm3.639-5.356v-9.647q0-.309-.343-.309H46.694q-2.85,0-2.85,2.987v7.141q0,2.987,2.85,2.987h1.957a3.206,3.206,0,0,0,2.369-.824A3.158,3.158,0,0,0,51.843-67.689Zm9.441,5.356H59.74a.425.425,0,0,1-.481-.481V-85.988a.425.425,0,0,1,.481-.481h1.545a.425.425,0,0,1,.481.481v23.174A.425.425,0,0,1,61.285-62.334Zm7.587,0H67.327a.425.425,0,0,1-.481-.481V-85.988a.425.425,0,0,1,.481-.481h1.545a.425.425,0,0,1,.481.481v23.174A.425.425,0,0,1,68.872-62.334Z" transform="translate(263.62 390.38)"/><path class="a" d="M17.688-62.334h-4.12a5.071,5.071,0,0,1-3.725-1.339,5.022,5.022,0,0,1-1.356-3.742V-79.328A5.022,5.022,0,0,1,9.843-83.07a5.071,5.071,0,0,1,3.725-1.339h4.12a5.071,5.071,0,0,1,3.725,1.339,5.022,5.022,0,0,1,1.356,3.742v1.682a.425.425,0,0,1-.481.481H20.744a.425.425,0,0,1-.481-.481v-1.579q0-2.987-2.884-2.987H13.843q-2.85,0-2.85,2.987v11.707q0,2.987,2.85,2.987h3.536q2.884,0,2.884-2.987V-69.1a.425.425,0,0,1,.481-.481h1.545a.425.425,0,0,1,.481.481v1.682a5.022,5.022,0,0,1-1.356,3.742A5.071,5.071,0,0,1,17.688-62.334Zm11.57,0H27.713a.425.425,0,0,1-.481-.481V-85.988a.425.425,0,0,1,.481-.481h1.545a.425.425,0,0,1,.481.481v23.174A.425.425,0,0,1,29.258-62.334ZM34.82-82.727v-3.227q0-.481.446-.481h1.579a.425.425,0,0,1,.481.481v3.227a.425.425,0,0,1-.481.481H35.266Q34.82-82.246,34.82-82.727Zm0,19.913V-79.362q0-.481.446-.481h1.579a.425.425,0,0,1,.481.481v16.548a.425.425,0,0,1-.481.481H35.3A.425.425,0,0,1,34.82-62.814ZM52.432-64.05v1.27q0,.446-.481.446H46.973a5.071,5.071,0,0,1-3.725-1.339,5.022,5.022,0,0,1-1.356-3.742v-7.347A5.022,5.022,0,0,1,43.248-78.5a5.071,5.071,0,0,1,3.725-1.339h4.978a.425.425,0,0,1,.481.481v1.27q0,.446-.481.446h-4.7q-2.85,0-2.85,2.987v7.141q0,2.987,2.85,2.987h4.7A.425.425,0,0,1,52.432-64.05Zm5.7,1.717H56.586a.425.425,0,0,1-.481-.481V-85.988a.425.425,0,0,1,.481-.481h1.545a.425.425,0,0,1,.481.481v23.174A.425.425,0,0,1,58.131-62.334Z" transform="translate(196 390.38)"/><path class="b" d="M18.649,13.565l-4.2-1.8a.9.9,0,0,0-1.05.259L11.54,14.3A13.9,13.9,0,0,1,4.9,7.653l2.272-1.86a.9.9,0,0,0,.259-1.05l-1.8-4.2A.906.906,0,0,0,4.6.023L.7.922A.9.9,0,0,0,0,1.8,17.4,17.4,0,0,0,17.4,19.2a.9.9,0,0,0,.877-.7l.9-3.9A.911.911,0,0,0,18.649,13.565Z" transform="translate(261.582 302.509) rotate(42)"/><path class="c" d="M5.426-57.734V-61a4.161,4.161,0,0,1,1.682-3.33l6.317-5.356a3.585,3.585,0,0,0,1.545-2.747v-1.03a2.01,2.01,0,0,0-.5-1.528,2.353,2.353,0,0,0-1.631-.463h-1.2a2.1,2.1,0,0,0-1.545.463,2.157,2.157,0,0,0-.446,1.528v1.1q0,.755-.721.755H6.01q-.721,0-.721-.755v-1.167a5.5,5.5,0,0,1,1.476-4.12,5.745,5.745,0,0,1,4.189-1.442h2.609a5.745,5.745,0,0,1,4.189,1.442,5.5,5.5,0,0,1,1.476,4.12v1.373a5.564,5.564,0,0,1-2.06,4.429l-6.454,5.493a1.109,1.109,0,0,0-.412.824v.549h8.205a.637.637,0,0,1,.721.721v2.4a.637.637,0,0,1-.721.721H6.147A.637.637,0,0,1,5.426-57.734Z" transform="translate(263.62 385.06)"/></g></svg>