<svg xmlns="http://www.w3.org/2000/svg" width="156" height="51" viewBox="0 0 156 51"><defs><style>.a{fill:#2250b3;font-family:Rajdhani-Bold, Rajdhani;font-weight:700;}.a,.c{font-size:40px;}.b,.c{fill:#f7f6f4;font-family:Rajdhani-Medium, Rajdhani;font-weight:500;}.d{fill:#fff;}</style></defs><g transform="translate(-41 -30)"><text class="a" transform="translate(117 67)"><tspan x="0" y="0">2</tspan><tspan class="b" y="0">Call</tspan></text><g transform="translate(41 30)"><text class="c" transform="translate(0 37)"><tspan x="0" y="0">Clicl </tspan></text><path class="d" d="M21.7,15.787l-4.887-2.095a1.047,1.047,0,0,0-1.222.3l-2.164,2.644A16.174,16.174,0,0,1,5.7,8.906L8.343,6.742a1.045,1.045,0,0,0,.3-1.222L6.55.633A1.054,1.054,0,0,0,5.35.026L.812,1.074A1.047,1.047,0,0,0,0,2.094,20.245,20.245,0,0,0,20.247,22.341a1.047,1.047,0,0,0,1.021-.812l1.047-4.538A1.06,1.06,0,0,0,21.7,15.787Z" transform="translate(69.204 7.312) rotate(42)"/></g></g></svg>