<svg xmlns="http://www.w3.org/2000/svg" width="561" height="676" viewBox="0 0 561 676"><defs><style>.a,.b,.n{fill:none;}.a,.b,.c{stroke:#ddd4d4;}.a{stroke-linecap:round;}.a,.b{stroke-width:2px;}.c,.l{fill:#fff;}.d,.e,.f{fill:#2250b3;}.e{font-size:44px;font-family:Avenir-Heavy, Avenir;}.e,.f{font-weight:800;}.f{font-size:30px;font-family:Avenir-Black, Avenir;}.g{font-size:20px;font-family:Avenir-Medium, Avenir;}.g,.j,.k{font-weight:500;}.h{fill:#feb62d;}.i{fill:#fec12d;font-size:52px;font-family:Rajdhani-Bold, Rajdhani;font-weight:700;}.j,.k{fill:#f7f6f4;font-family:Rajdhani-Medium, Rajdhani;}.k{font-size:53px;}.m{stroke:none;}</style></defs><g transform="translate(-740 -2402.5)"><line class="a" y2="674" transform="translate(1013.5 2403.5)"/><line class="b" x2="80" transform="translate(968.5 2519.5)"/><line class="b" x2="80" transform="translate(968.5 2783.5)"/><line class="b" x2="40" transform="translate(993.5 2708.5)"/><line class="b" x2="40" transform="translate(993.5 2854.5)"/><line class="b" x2="40" transform="translate(993.5 3006.5)"/><line class="b" x2="40" transform="translate(993.5 2569.5)"/><line class="b" x2="40" transform="translate(993.5 2455.5)"/><line class="b" x1="80" transform="translate(979.5 2644.5)"/><line class="b" x1="80" transform="translate(979.5 2935.5)"/><g class="c" transform="translate(740 2474)"><rect class="m" width="238" height="91" rx="45.5"/><rect class="n" x="0.5" y="0.5" width="237" height="90" rx="45"/></g><g class="c" transform="translate(740 2738)"><rect class="m" width="238" height="91" rx="45.5"/><rect class="n" x="0.5" y="0.5" width="237" height="90" rx="45"/></g><g class="c" transform="translate(1050 2599)"><rect class="m" width="238" height="91" rx="45.5"/><rect class="n" x="0.5" y="0.5" width="237" height="90" rx="45"/></g><rect class="d" width="251" height="91" rx="45.5" transform="translate(1050 2890)"/><text class="e" transform="translate(1048 2534)"><tspan x="0" y="0">1998</tspan></text><text class="e" transform="translate(1048 2798)"><tspan x="0" y="0">2006</tspan></text><text class="e" transform="translate(872 2659)"><tspan x="0" y="0">2000</tspan></text><text class="e" transform="translate(872 2950)"><tspan x="0" y="0">2021</tspan></text><text class="f" transform="translate(771 2485)"><tspan x="39.24" y="30">Nº 800</tspan><tspan class="g"><tspan x="6.6" y="61">Servcio Telefónico</tspan></tspan></text><text class="f" transform="translate(771 2749)"><tspan x="24.585" y="30">Call Back </tspan><tspan class="g"><tspan x="6.6" y="61">Servcio Telefónico</tspan></tspan></text><text class="f" transform="translate(1080 2610)"><tspan x="39.24" y="30">Nº 600</tspan><tspan class="g"><tspan x="6.6" y="61">Servcio Telefónico</tspan></tspan></text><circle class="d" cx="14.5" cy="14.5" r="14.5" transform="translate(1000 2505)"/><circle class="d" cx="14.5" cy="14.5" r="14.5" transform="translate(1000 2769)"/><circle class="d" cx="14.5" cy="14.5" r="14.5" transform="translate(999 2630)"/><circle class="h" cx="14.5" cy="14.5" r="14.5" transform="translate(999 2921)"/><text class="i" transform="translate(1168 2950)"><tspan x="0" y="0">2</tspan><tspan class="j" y="0">Call</tspan></text><g transform="translate(1068 2902)"><text class="k" transform="translate(0 49)"><tspan x="0" y="0">Clicl </tspan></text><path class="l" d="M28.662,20.848l-6.454-2.766a1.383,1.383,0,0,0-1.614.4l-2.858,3.492A21.359,21.359,0,0,1,7.526,11.762L11.018,8.9a1.38,1.38,0,0,0,.4-1.614L8.65.836a1.392,1.392,0,0,0-1.585-.8L1.072,1.418A1.383,1.383,0,0,0,0,2.766,26.735,26.735,0,0,0,26.738,29.5a1.383,1.383,0,0,0,1.348-1.072l1.383-5.993A1.4,1.4,0,0,0,28.662,20.848Z" transform="translate(91.391 9.984) rotate(42)"/></g></g></svg>